#!OML:ASF E:\motion texture\Top Level 1\Subject 1\Session 1\male.ASF
:FULLY-SPECIFIED
:DEGREES
143
root 14.269 17.9137 5.57347 -345.491 -80.4592 350.173
lowerback 0.287872 0.789828 -0.816562
upperback -2.23511 1.03026 0.168257
thorax -2.47021 0.526983 0.604962
lowerneck -12.165 -2.87996 -7.26831
upperneck 10.1273 -2.19397 -4.00991
head 5.09896 -1.66807 -0.262007
rclavicle 2.96795e-014 -5.36719e-015
rhumerus 3.93887 18.7395 -78.0756
rradius 100.436
rwrist 7.32445
rhand -26.116 -19.5506
rfingers 7.12502
rthumb 0.433663 -49.5299
lclavicle 2.96795e-014 -5.36719e-015
lhumerus -3.14911 -30.989 90.2433
lradius 83.6076
lwrist -17.4519
lhand -26.042 11.9171
lfingers 7.12502
lthumb 0.505202 41.8962
rfemur -32.9109 -12.5059 20.79
rtibia 56.3491
rfoot -6.09429 -18.8846
rtoes 6.55731
lfemur -6.41412 -7.44991 -19.4749
ltibia 18.2543
lfoot -11.6819 -1.45058
ltoes -2.53254
144
root 14.1469 17.9154 5.57624 -346.017 -80.5047 350.781
lowerback 0.190721 0.755318 -0.866135
upperback -2.24746 0.983592 0.160961
thorax -2.4282 0.504298 0.627686
lowerneck -12.2097 -2.91534 -7.27514
upperneck 10.0873 -2.24193 -3.97133
head 5.09482 -1.68771 -0.253049
rclavicle -5.13424e-015 3.57812e-015
rhumerus 4.27935 18.698 -78.0028
rradius 98.1847
rwrist 6.47542
rhand -25.0686 -20.3044
rfingers 7.12502
rthumb 1.44536 -50.2793
lclavicle -5.13424e-015 3.57812e-015
lhumerus -3.21257 -30.2364 90.2846
lradius 82.0084
lwrist -16.997
lhand -25.9776 12.1446
lfingers 7.12502
lthumb 0.56734 42.1236
rfemur -33.3249 -12.6368 20.5795
rtibia 54.4826
rfoot -6.49931 -19.2764
rtoes 6.6072
lfemur -5.80922 -7.29815 -19.6555
ltibia 17.8745
lfoot -11.7977 -1.18478
ltoes -2.81465
145
root 14.025 17.9156 5.57826 -346.545 -80.5414 351.41
lowerback 0.0999248 0.716714 -0.916489
upperback -2.26849 0.93139 0.154881
thorax -2.39857 0.478897 0.651944
lowerneck -12.2785 -2.95381 -7.28782
upperneck 10.0668 -2.29035 -3.92638
head 5.10099 -1.70833 -0.24182
rclavicle -2.08584e-014 -1.98785e-015
rhumerus 4.54669 18.6997 -77.9421
rradius 95.9567
rwrist 5.57827
rhand -24.0942 -21.104
rfingers 7.12502
rthumb 2.38639 -51.0704
lclavicle -2.08584e-014 -1.98785e-015
lhumerus -3.31249 -29.483 90.3254
lradius 80.3752
lwrist -16.4274
lhand -25.8282 12.4478
lfingers 7.12502
lthumb 0.711657 42.4263
rfemur -33.6909 -12.7632 20.3647
rtibia 52.491
rfoot -6.82539 -19.6442
rtoes 6.77452
lfemur -5.24783 -7.18691 -19.8258
ltibia 17.5268
lfoot -11.9177 -0.935222
ltoes -3.10921
146
root 13.9028 17.9143 5.57935 -347.087 -80.5704 352.068
lowerback 0.0410875 0.678072 -0.964832
upperback -2.31983 0.878357 0.142128
thorax -2.4179 0.453151 0.667508
lowerneck -12.3419 -2.99588 -7.29189
upperneck 10.0762 -2.34396 -3.88305
head 5.11558 -1.7323 -0.233109
rclavicle -2.71294e-014 -5.76476e-015
rhumerus 4.69361 18.731 -77.9182
rradius 93.7586
rwrist 4.69416
rhand -23.1469 -21.9222
rfingers 7.12502
rthumb 3.30125 -51.8764
lclavicle -2.71294e-014 -5.76476e-015
lhumerus -3.49651 -28.7424 90.3804
lradius 78.7064
lwrist -15.7659
lhand -25.6912 12.7997
lfingers 7.12502
lthumb 0.844018 42.7778
rfemur -33.9998 -12.8786 20.1425
rtibia 50.3679
rfoot -7.04955 -19.9835
rtoes 7.09191
lfemur -4.72844 -7.11564 -19.9832
ltibia 17.2187
lfoot -12.0507 -0.726911
ltoes -3.4164
147
root 13.78 17.9116 5.57947 -347.633 -80.5901 352.746
lowerback 0.00654909 0.633349 -1.0109
upperback -2.39019 0.816688 0.128822
thorax -2.47021 0.423194 0.68096
lowerneck -12.4339 -3.03793 -7.311
upperneck 10.1178 -2.39217 -3.82549
head 5.1454 -1.75466 -0.217976
rclavicle -1.73968e-014 -5.76476e-015
rhumerus 4.74779 18.7966 -77.9273
rradius 91.5739
rwrist 3.88377
rhand -22.2636 -22.739
rfingers 7.12502
rthumb 4.15426 -52.6782
lclavicle -1.73968e-014 -5.76476e-015
lhumerus -3.7323 -27.9918 90.4341
lradius 76.984
lwrist -15.0483
lhand -25.5244 13.1502
lfingers 7.12502
lthumb 1.0051 43.1276
rfemur -34.2522 -12.9757 19.9149
rtibia 48.1165
rfoot -7.13026 -20.2892
rtoes 7.43629
lfemur -4.25161 -7.08803 -20.1232
ltibia 16.9484
lfoot -12.197 -0.569123
ltoes -3.74652
148
root 13.6566 17.9075 5.5785 -348.15 -80.6073 353.41
lowerback -0.0367706 0.581808 -1.06404
upperback -2.45697 0.746163 0.127666
thorax -2.51394 0.389088 0.711164
lowerneck -12.5578 -3.08053 -7.35916
upperneck 10.1694 -2.43392 -3.75561
head 5.18419 -1.77483 -0.194568
rclavicle 4.01654e-014 -1.98785e-015
rhumerus 4.75517 18.9067 -77.9412
rradius 89.4033
rwrist 3.18358
rhand -21.4306 -23.5405
rfingers 7.12502
rthumb 4.95861 -53.4624
lclavicle 4.01654e-014 -1.98785e-015
lhumerus -3.9772 -27.2076 90.4838
lradius 75.1893
lwrist -14.3185
lhand -25.4142 13.5258
lfingers 7.12502
lthumb 1.11154 43.5026
rfemur -34.4489 -13.0346 19.6873
rtibia 45.7408
rfoot -7.04085 -20.5504
rtoes 7.71512
lfemur -3.81289 -7.09155 -20.2368
ltibia 16.7085
lfoot -12.3483 -0.472215
ltoes -4.11386
